<?xml version="1.0" encoding="UTF-8"?>
<!-- Generator: Adobe Illustrator 15.0.2, SVG Export Plug-In . SVG Version: 6.00 Build 0)  -->
<!DOCTYPE svg PUBLIC "-//W3C//DTD SVG 1.1//EN" "http://www.w3.org/Graphics/SVG/1.1/DTD/svg11.dtd">
<svg xmlns="http://www.w3.org/2000/svg" xmlns:xlink="http://www.w3.org/1999/xlink" version="1.1" id="Layer_1" x="0px" y="0px" width="512px" height="512px" viewBox="0 0 512 512" enable-background="new 0 0 512 512" xml:space="preserve">
<path d="M255.994,0C397.366,0,512,114.609,512,255.994C512,397.378,397.366,512,255.994,512C114.616,512,0,397.378,0,255.994  C0,114.609,114.616,0,255.994,0z M255.994,196.919c-32.629,0-59.075,26.452-59.075,59.075c0,32.622,26.446,59.075,59.075,59.075  c32.622,0,59.075-26.453,59.075-59.075C315.069,223.371,288.616,196.919,255.994,196.919z M402.37,415.669  c26.816-24.595,47.415-55.856,59.172-91.151l-112.126-37.383c-5.344,16.056-14.696,30.266-26.89,41.439L402.37,415.669z   M332.072,458.87c14.489-5.441,28.25-12.389,41.076-20.647l-63.909-99.397l-18.667,9.376L332.072,458.87z M114.13,92.305  c-35.069,30.418-60.271,71.919-70.14,119.055l115.637,24.346c4.487-21.425,15.94-40.286,31.881-54.113L114.13,92.305z" fill="#000000"/>
</svg>
